# xmcd
#
# Track frame offsets:
#	150
#	15805
#	34323
#	51392
#	65536
#	82435
#	100222
#	110823
#	126329
#	144224
#	158180
#	170192
#
# Disc length: 2465 seconds
#
# Revision: 1
# Processed by: cddbd v1.5.1PL0 Copyright (c) Steve Scherf et al.
# Submitted via: audiograbber 1.83.01
#
DISCID=ad099f0c
DTITLE=Livio Gomes - Da Maren Do Rio
DYEAR=1900
DGENRE=
TTITLE0=Da Margem Do Rio
TTITLE1=As Marcas Que Ficaram
TTITLE2=Os Bailes La De Fora
TTITLE3=Jornada Da Vida
TTITLE4=Lembrancas
TTITLE5=A Banda Da Praca
TTITLE6=Nossa Rua Nossa Casa
TTITLE7=Sem Ter Voce
TTITLE8=Nao Devo Ser Assim
TTITLE9=Saudades Do Meu Amor
TTITLE10=Se A Saudade Chegar
TTITLE11=Tudo Quanto Quis
EXTD=
EXTT0=
EXTT1=
EXTT2=
EXTT3=
EXTT4=
EXTT5=
EXTT6=
EXTT7=
EXTT8=
EXTT9=
EXTT10=
EXTT11=
PLAYORDER=
